# xmcd
#
# Track frame offsets: 
#        150
#        14489
#        27328
#        41810
#        52364
#        63413
#        75524
#        87921
#        98926
#        110862
#        123392
#        136727
#        149496
#        170218
#        192459
#        206386
#        220345
#        234182
#        246525
#        257085
#        268149
#        281351
#        292668
#        305451
#        319452
#        331905
#        344364
#
# Disc length: 4748 seconds
#
# Revision: 0
# Processed by: cddbd v1.5.2PL0 Copyright (c) Steve Scherf et al.
# Submitted via: ExactAudioCopy v1.0b1
#
DISCID=a9128a1b
DTITLE=Freddie King - Complete King Federal Singles [CD2]
DYEAR=2012
DGENRE=Blues
TTITLE0=It's So Easy, Child (1962)
TTITLE1=Bossa Nova Watusi Twist, The (1963)
TTITLE2=Look Ma, I'm Cryin' (1963)
TTITLE3=(I'd Love To) Make Love To You (1963)
TTITLE4=One Hundred Years (1963)
TTITLE5=(The Welfare) Turns It's Back On You (1963)
TTITLE6=You're Barkin' Up The Wrong Tree (1963)
TTITLE7=Surf Monkey (1963)
TTITLE8=Monkey Donkey (1963)
TTITLE9=Meet Me At The Station (1964)
TTITLE10=King-A-Ling (1964)
TTITLE11=Driving Sideways (1964)
TTITLE12=Someday, After A While (You'll Be Sorry) (1964)
TTITLE13=She Put The Whammy On Me (1964)
TTITLE14=High Rise (1964)
TTITLE15=Now I've Got A Woman (1964)
TTITLE16=Onion Rings (1964)
TTITLE17=Some Other Day, Some Other Time (1964)
TTITLE18=Manhole (1964)
TTITLE19=If You Have It (1965)
TTITLE20=I Love You More Everyday (1965)
TTITLE21=Full Time Love (1965)
TTITLE22=She's The One (1965)
TTITLE23=Use What You've Got (1966)
TTITLE24=Double Eyed Whammy (1966)
TTITLE25=You've Got Me Licked (1967)
TTITLE26=Girl From Kookamunga (1967)
EXTD=
EXTT0=
EXTT1=
EXTT2=
EXTT3=
EXTT4=
EXTT5=
EXTT6=
EXTT7=
EXTT8=
EXTT9=
EXTT10=
EXTT11=
EXTT12=
EXTT13=
EXTT14=
EXTT15=
EXTT16=
EXTT17=
EXTT18=
EXTT19=
EXTT20=
EXTT21=
EXTT22=
EXTT23=
EXTT24=
EXTT25=
EXTT26=
PLAYORDER=
